<?xml version="1.0" encoding="utf-8"?>
<!-- Generator: Adobe Illustrator 26.1.0, SVG Export Plug-In . SVG Version: 6.00 Build 0)  -->
<svg version="1.1" id="Layer_1" xmlns="http://www.w3.org/2000/svg" xmlns:xlink="http://www.w3.org/1999/xlink" x="0px" y="0px"
	 viewBox="0 0 286 94" style="enable-background:new 0 0 286 94;" xml:space="preserve">
<style type="text/css">
	.st0{fill:#FEFFFE;}
	.st1{fill:#FFFFFF;stroke:#FFFFFF;stroke-linecap:round;stroke-linejoin:round;stroke-miterlimit:10;}
	.st2{fill:#FFFFFF;}
</style>
<g>
	<g>
		<path d="M47,3c24.3,0,44,19.7,44,44S71.3,91,47,91S3,71.3,3,47S22.7,3,47,3 M47,0C21,0,0,21,0,47s21,47,47,47s47-21,47-47
			C94,21.1,73,0,47.1,0C47.1,0,47,0,47,0z"/>
		<path class="st0" d="M47,93.2C21.5,93.2,0.8,72.5,0.8,47S21.5,0.8,47,0.8S93.2,21.5,93.2,47C93.1,72.5,72.5,93.1,47,93.2z"/>
	</g>
	<circle cx="47" cy="47" r="44.8"/>
</g>
<g>
	<polygon class="st1" points="40.2,28 46.9,21.1 53.8,28 46.9,34.7 	"/>
	<path class="st1" d="M47,42.8L33.5,29.9c0,0,0,0,0,0c-0.1-0.1-1.9-1.2-3.3,0.2l-8.3,8.3c0,0,0,0,0,0.1v9.7c0,0,0,0,0,0
		c0,0.2,0.8,4.4,4.1,0.1c3.1-4,5.3-5.2,5.6-5.3c0,0,0.1,0,0.1,0l15.2,13.4c0.1,0,0.1,0,0.1-0.1"/>
	<path class="st1" d="M47,42.8l13.5-12.9c0,0,0,0,0,0c0.1-0.1,1.9-1.2,3.3,0.2l8.3,8.3c0,0,0,0,0,0.1v9.7c0,0,0,0,0,0
		c0,0.2-0.8,4.4-4.1,0.1c-3.1-4-5.3-5.2-5.6-5.3c0,0-0.1,0-0.1,0L47.1,56.3c-0.1,0-0.1,0-0.1-0.1"/>
	<path class="st1" d="M52.4,59.5l4.3-4c0.7-0.6,1.7-0.9,2.6-0.5c0.9,0.3,1.9,1.1,2.4,2.8c0.2,0.5,0.3,1.1,0.3,1.6v9.3
		c0,0.5-0.3,1.1-0.8,1.3c-0.5,0.2-1.2,0.2-2.1-0.7l-6.7-7.8C51.8,60.9,51.8,60,52.4,59.5z"/>
	<path class="st1" d="M42.1,59.5l-4.3-4c-0.7-0.6-1.7-0.9-2.6-0.5c-0.9,0.3-1.9,1.1-2.4,2.8c-0.2,0.5-0.3,1.1-0.3,1.6l0,9.3
		c0,0.5,0.3,1.1,0.8,1.3c0.5,0.2,1.2,0.2,2.1-0.7l6.7-7.8C42.7,60.9,42.7,60.1,42.1,59.5z"/>
	<path class="st1" d="M44.3,40.2l2.3,2.2c0.4,0.4,0.5,0.4,0.9,0l2.2-2.1"/>
</g>
<g>
	<g>
		<path d="M239,91.7c-24.7,0-44.7-20-44.7-44.7s20-44.7,44.7-44.7s44.7,20,44.7,44.7C283.7,71.7,263.7,91.7,239,91.7z"/>
		<path class="st2" d="M239,3c24.3,0,44,19.7,44,44s-19.7,44-44,44s-44-19.7-44-44S214.7,3,239,3 M239,0c-26,0-47,21-47,47
			s21,47,47,47s47-21,47-47c0-25.9-21-47-46.9-47C239.1,0,239,0,239,0z"/>
	</g>
	<ellipse transform="matrix(0.1735 -0.9848 0.9848 0.1735 151.2456 274.2205)" class="st2" cx="239" cy="47" rx="40.9" ry="40.9"/>
	<g>
		<path d="M218.7,33.5h12.6c5.8,0,8.7,2.7,8.7,7.1c0,5.1-3.5,6.4-4.4,6.7v0.1c1.6,0.2,3.9,1.4,3.9,5.6c0,3.1,0.4,5.9,1.4,7h-5
			c-0.6-1.2-0.8-2.6-0.7-3.9c0-4.8-1-7-5.3-7h-6.8V60h-4.6V33.5H218.7z M223.3,45.6h7.6c3,0,4.5-1.4,4.5-4.2c0-3.4-2.2-4-4.6-4h-7.5
			V45.6z"/>
		<path d="M250.3,44.8c2.8,0.1,5.7-0.9,5.7-4.1c0-2-1.7-3.7-3.7-3.7c-0.1,0-0.2,0-0.3,0c-2.9,0-4.4,2.6-4.3,5.3h-4.2
			c0.2-5,3.4-8.8,8.6-8.8c4,0,8.2,2.3,8.2,6.9c0,2.6-1.1,4.7-3.7,5.5V46c3,0.6,4.7,3.1,4.7,6.5c0,4.9-4.3,7.9-9.2,7.9
			c-6,0-9-3.6-9.1-9h4.2c-0.1,3.1,1.6,5.5,4.9,5.5c2.8,0,5-1.7,5-4.6c0-4-3.4-4.5-6.8-4.4V44.8z"/>
	</g>
</g>
<g>
	<g>
		<path d="M143,92.2C118,92.2,97.8,72,97.8,47S118,1.8,143,1.8S188.2,22,188.2,47C188.2,72,168,92.2,143,92.2z"/>
		<path class="st2" d="M143,3c24.3,0,44,19.7,44,44s-19.7,44-44,44S99,71.3,99,47S118.7,3,143,3 M143,0c-26,0-47,21-47,47
			s21,47,47,47s47-21,47-47c0-25.9-21-47-46.9-47C143.1,0,143,0,143,0z"/>
	</g>
	<circle class="st2" cx="143" cy="47" r="40.9"/>
	<g>
		<path d="M125.1,33.5h4.6v22.4h13.4v4h-18L125.1,33.5z"/>
		<path d="M151.9,44.8c2.8,0.1,5.7-0.9,5.7-4.1c0-2-1.7-3.7-3.7-3.7c-0.1,0-0.2,0-0.3,0c-2.9,0-4.4,2.6-4.3,5.3h-4.2
			c0.2-5,3.4-8.8,8.6-8.8c4,0,8.2,2.3,8.2,6.9c0,2.6-1.1,4.7-3.7,5.5V46c3,0.6,4.7,3.1,4.7,6.5c0,4.9-4.3,7.9-9.2,7.9
			c-6,0-9-3.6-9.1-9h4.2c-0.1,3.1,1.6,5.5,4.9,5.5c2.8,0,5-1.7,5-4.6c0-4-3.4-4.5-6.8-4.4L151.9,44.8L151.9,44.8z"/>
	</g>
</g>
</svg>
