<?xml version="1.0" encoding="utf-8"?>
<!-- Generator: Adobe Illustrator 26.1.0, SVG Export Plug-In . SVG Version: 6.00 Build 0)  -->
<svg version="1.1" id="Layer_1" xmlns="http://www.w3.org/2000/svg" xmlns:xlink="http://www.w3.org/1999/xlink" x="0px" y="0px"
	 viewBox="0 0 224 112.4" style="enable-background:new 0 0 224 112.4;" xml:space="preserve">
<style type="text/css">
	.st0{fill:#FEFFFE;}
	.st1{fill:url(#SVGID_1_);}
	.st2{fill:url(#SVGID_00000085235462546091780480000006154704109331210424_);}
	.st3{fill:url(#SVGID_00000106147725267808625590000013515541525248846220_);}
	.st4{fill:url(#SVGID_00000094606126346719852950000005703481594922780040_);}
	.st5{fill:url(#SVGID_00000047052542500426685540000015575414850736538284_);}
	.st6{fill:url(#SVGID_00000144301948198539622370000009001246582822098848_);}
	.st7{fill:url(#SVGID_00000019657427754044525230000008832486365237834394_);}
	.st8{fill:url(#SVGID_00000087408602582326635170000014164562613336890812_);}
	.st9{fill:url(#SVGID_00000142178049146501578860000003364206145582831496_);}
	.st10{fill:#F0F4EF;}
	.st11{fill:url(#SVGID_00000176765882984793797590000010346671474372019078_);}
	.st12{fill:url(#SVGID_00000021802375901931290310000012725492774433741498_);}
	.st13{fill:url(#SVGID_00000169535163096308192970000002624742180109646241_);}
</style>
<g>
	<g>
		<g>
			<path class="st0" d="M83.8,111.3c-14.5,0-26.3-11.7-26.3-26.2c0-14.5,11.7-26.3,26.2-26.3C98.2,58.8,110,70.5,110,85
				c0,0,0,0.1,0,0.1C109.9,99.5,98.2,111.2,83.8,111.3z"/>
			<linearGradient id="SVGID_1_" gradientUnits="userSpaceOnUse" x1="64.4726" y1="65.79" x2="103.0099" y2="104.3274">
				<stop  offset="0" style="stop-color:#BEE0DE"/>
				<stop  offset="1" style="stop-color:#762A6A"/>
			</linearGradient>
			<path class="st1" d="M83.8,59.8c13.9,0,25.2,11.4,25.2,25.3s-11.4,25.2-25.3,25.2c-13.9,0-25.2-11.3-25.2-25.2
				C58.5,71.1,69.8,59.8,83.8,59.8 M83.8,57.8c-15,0-27.3,12.2-27.3,27.2s12.2,27.3,27.2,27.3c15,0,27.3-12.2,27.3-27.2
				C111,70.1,98.8,57.9,83.8,57.8z"/>
		</g>
		
			<linearGradient id="SVGID_00000005250074789436176800000013894212983781136808_" gradientUnits="userSpaceOnUse" x1="70.4284" y1="71.743" x2="97.157" y2="98.4716">
			<stop  offset="0" style="stop-color:#BEE0DE"/>
			<stop  offset="0.1977" style="stop-color:#B2C1CA"/>
			<stop  offset="0.6268" style="stop-color:#937398"/>
			<stop  offset="1" style="stop-color:#762A6A"/>
		</linearGradient>
		<path style="fill:url(#SVGID_00000005250074789436176800000013894212983781136808_);" d="M83.8,66.2c-10.4,0-18.9,8.5-18.9,18.9
			S73.4,104,83.8,104s18.9-8.5,18.9-18.9C102.7,74.7,94.2,66.2,83.8,66.2z M83.8,101.1c-8.8,0-16-7.2-16-16s7.2-16,16-16
			s16,7.2,16,16S92.6,101.1,83.8,101.1z"/>
	</g>
	<g>
		<g>
			<path class="st0" d="M27.2,111.3c-14.5-0.1-26.1-11.9-26-26.4s11.9-26.1,26.4-26c14.4,0.1,26,11.8,26,26.2
				c0,14.5-11.8,26.2-26.3,26.2C27.3,111.3,27.2,111.3,27.2,111.3z"/>
			
				<linearGradient id="SVGID_00000174586769299594908430000011280019358280992923_" gradientUnits="userSpaceOnUse" x1="7.9901" y1="65.8018" x2="46.5982" y2="104.4099">
				<stop  offset="0" style="stop-color:#BEE0DE"/>
				<stop  offset="1" style="stop-color:#762A6A"/>
			</linearGradient>
			<path style="fill:url(#SVGID_00000174586769299594908430000011280019358280992923_);" d="M27.3,59.8c13.9,0,25.2,11.4,25.2,25.3
				s-11.4,25.2-25.3,25.2C13.3,110.3,2,99,2,85.1C2,71.1,13.3,59.8,27.3,59.8 M27.3,57.8C12.2,57.8,0,70,0,85.1s12.2,27.3,27.3,27.3
				s27.3-12.2,27.3-27.3l0,0C54.6,70,42.4,57.8,27.3,57.8z"/>
		</g>
		
			<linearGradient id="SVGID_00000106114735942016923890000014399403877330512536_" gradientUnits="userSpaceOnUse" x1="13.875" y1="71.725" x2="40.625" y2="98.475">
			<stop  offset="0" style="stop-color:#BEE0DE"/>
			<stop  offset="0.1977" style="stop-color:#B2C1CA"/>
			<stop  offset="0.6268" style="stop-color:#937398"/>
			<stop  offset="1" style="stop-color:#762A6A"/>
		</linearGradient>
		<polygon style="fill:url(#SVGID_00000106114735942016923890000014399403877330512536_);" points="41.6,72.7 39.6,70.7 27.3,83.1 
			14.9,70.7 12.9,72.7 25.2,85.1 12.9,97.4 14.9,99.5 27.3,87.1 39.6,99.5 41.6,97.4 29.3,85.1 		"/>
	</g>
	<g>
		<g>
			<path class="st0" d="M140.3,111.3c-14.5,0-26.2-11.8-26.2-26.3c0-14.5,11.8-26.2,26.3-26.2c14.5,0,26.2,11.7,26.2,26.2
				c0,14.5-11.7,26.3-26.2,26.3C140.4,111.3,140.3,111.3,140.3,111.3z"/>
			
				<linearGradient id="SVGID_00000160897934822673784710000002143815905823985080_" gradientUnits="userSpaceOnUse" x1="121.0726" y1="65.79" x2="159.61" y2="104.3274">
				<stop  offset="0" style="stop-color:#BEE0DE"/>
				<stop  offset="1" style="stop-color:#762A6A"/>
			</linearGradient>
			<path style="fill:url(#SVGID_00000160897934822673784710000002143815905823985080_);" d="M140.3,59.8c13.9,0,25.2,11.4,25.2,25.3
				c0,13.9-11.4,25.2-25.3,25.2c-13.9,0-25.2-11.3-25.2-25.2C115,71.1,126.3,59.8,140.3,59.8 M140.3,57.8c-15,0-27.2,12.3-27.2,27.3
				s12.3,27.2,27.3,27.2c15,0,27.2-12.3,27.2-27.3C167.5,70,155.3,57.8,140.3,57.8z"/>
		</g>
		
			<linearGradient id="SVGID_00000080920120501653732620000013313594837856840853_" gradientUnits="userSpaceOnUse" x1="126" y1="70.7" x2="154.6" y2="99.3">
			<stop  offset="0" style="stop-color:#BEE0DE"/>
			<stop  offset="0.1977" style="stop-color:#B2C1CA"/>
			<stop  offset="0.6268" style="stop-color:#937398"/>
			<stop  offset="1" style="stop-color:#762A6A"/>
		</linearGradient>
		<path style="fill:url(#SVGID_00000080920120501653732620000013313594837856840853_);" d="M151.8,70.7H126v28.6h28.6V70.7H151.8z
			 M151.8,96.6h-23v-23h23V96.6z"/>
	</g>
	<g>
		<g>
			<path class="st0" d="M196.7,111.3c-14.5,0-26.2-11.8-26.2-26.3c0-14.5,11.8-26.2,26.3-26.2c14.5,0,26.2,11.8,26.2,26.3
				C222.9,99.6,211.2,111.3,196.7,111.3z"/>
			
				<linearGradient id="SVGID_00000181789897405956739020000003014395513520300956_" gradientUnits="userSpaceOnUse" x1="177.4726" y1="65.79" x2="216.0099" y2="104.3274">
				<stop  offset="0" style="stop-color:#BEE0DE"/>
				<stop  offset="1" style="stop-color:#762A6A"/>
			</linearGradient>
			<path style="fill:url(#SVGID_00000181789897405956739020000003014395513520300956_);" d="M196.8,59.8c13.9,0,25.2,11.4,25.2,25.3
				c0,13.9-11.4,25.2-25.3,25.2c-13.9,0-25.2-11.3-25.2-25.2C171.5,71.1,182.8,59.8,196.8,59.8 M196.8,57.8
				c-15,0-27.3,12.2-27.3,27.2s12.2,27.3,27.2,27.3c15,0,27.3-12.2,27.3-27.2C224,70.1,211.8,57.9,196.8,57.8z"/>
		</g>
		
			<linearGradient id="SVGID_00000078763986495924741310000009736810882703736731_" gradientUnits="userSpaceOnUse" x1="184.7" y1="77.5" x2="208.7" y2="101.5">
			<stop  offset="0" style="stop-color:#BEE0DE"/>
			<stop  offset="0.1977" style="stop-color:#B2C1CA"/>
			<stop  offset="0.6268" style="stop-color:#937398"/>
			<stop  offset="1" style="stop-color:#762A6A"/>
		</linearGradient>
		<path style="fill:url(#SVGID_00000078763986495924741310000009736810882703736731_);" d="M212.7,93.1l-16-27.6l-16,27.6l-1.6,2.8
			h35.2L212.7,93.1z M196.8,93.1h-12.7l12.7-21.9l12.7,21.9H196.8z"/>
	</g>
</g>
<g>
	<g>
		<g>
			<path d="M83.8,53.5c-14.5,0-26.3-11.7-26.3-26.2S69.2,1,83.7,1C98.2,1,110,12.7,110,27.2C110,41.7,98.3,53.4,83.8,53.5z"/>
			
				<linearGradient id="SVGID_00000098940863525419877520000001076558740430677144_" gradientUnits="userSpaceOnUse" x1="64.3902" y1="8.0016" x2="102.9982" y2="46.6096">
				<stop  offset="0" style="stop-color:#BEE0DE"/>
				<stop  offset="1" style="stop-color:#762A6A"/>
			</linearGradient>
			<path style="fill:url(#SVGID_00000098940863525419877520000001076558740430677144_);" d="M83.8,2C97.7,2,109,13.4,109,27.3
				S97.6,52.5,83.7,52.5c-13.9,0-25.2-11.3-25.2-25.2C58.5,13.4,69.7,2,83.7,2C83.7,2,83.8,2,83.8,2 M83.8,0
				C68.7-0.1,56.5,12.1,56.4,27.2s12.1,27.3,27.2,27.4s27.3-12.1,27.4-27.2c0,0,0-0.1,0-0.1C111,12.3,98.8,0.1,83.8,0z"/>
		</g>
		<path class="st10" d="M83.8,8.4c-10.4,0-18.9,8.5-18.9,18.9s8.5,18.9,18.9,18.9s18.9-8.5,18.9-18.9C102.7,16.9,94.2,8.4,83.8,8.4z
			 M83.8,43.3c-8.8,0-16-7.2-16-16s7.2-16,16-16s16,7.2,16,16S92.6,43.3,83.8,43.3z"/>
	</g>
	<g>
		<g>
			<path d="M27.2,53.5C12.7,53.5,1,41.7,1,27.2S12.8,1,27.3,1c14.5,0,26.2,11.8,26.2,26.3C53.5,41.8,41.7,53.5,27.2,53.5z"/>
			
				<linearGradient id="SVGID_00000040533895463600068530000003479897723408112277_" gradientUnits="userSpaceOnUse" x1="8.0004" y1="7.9916" x2="46.6084" y2="46.5996">
				<stop  offset="0" style="stop-color:#BEE0DE"/>
				<stop  offset="1" style="stop-color:#762A6A"/>
			</linearGradient>
			<path style="fill:url(#SVGID_00000040533895463600068530000003479897723408112277_);" d="M27.3,2c13.9,0,25.2,11.4,25.2,25.3
				S41.1,52.5,27.2,52.5C13.3,52.5,2,41.2,2,27.3C2,13.3,13.3,2,27.3,2 M27.3,0C12.2,0,0,12.2,0,27.3s12.2,27.3,27.3,27.3
				s27.3-12.2,27.3-27.3l0,0C54.6,12.2,42.4,0,27.3,0C27.3,0,27.3,0,27.3,0z"/>
		</g>
		<polygon class="st10" points="41.6,14.9 39.6,12.9 27.3,25.2 14.9,12.9 12.9,14.9 25.2,27.2 12.9,39.6 14.9,41.6 27.3,29.3 
			39.6,41.6 41.6,39.6 29.3,27.2 		"/>
	</g>
	<g>
		<g>
			<path d="M140.3,54.2c-14.5,0-26.2-11.8-26.2-26.3c0-14.5,11.8-26.2,26.3-26.2c14.5,0,26.2,11.8,26.2,26.3
				C166.6,42.5,154.8,54.2,140.3,54.2C140.3,54.2,140.3,54.2,140.3,54.2z"/>
			
				<linearGradient id="SVGID_00000023239509494401781650000009790591620713337012_" gradientUnits="userSpaceOnUse" x1="121.0682" y1="8.6945" x2="159.6055" y2="47.2318">
				<stop  offset="0" style="stop-color:#BEE0DE"/>
				<stop  offset="1" style="stop-color:#762A6A"/>
			</linearGradient>
			<path style="fill:url(#SVGID_00000023239509494401781650000009790591620713337012_);" d="M140.3,2.7c13.9,0,25.2,11.4,25.2,25.3
				c0,13.9-11.4,25.2-25.3,25.2c-13.9,0-25.2-11.4-25.2-25.3C115.1,14,126.4,2.7,140.3,2.7 M140.3,0.7c-15,0-27.2,12.3-27.2,27.3
				s12.3,27.2,27.3,27.2c15,0,27.2-12.2,27.2-27.2C167.6,12.9,155.4,0.7,140.3,0.7z"/>
		</g>
		<path class="st10" d="M151.8,13.5H126v28.6h28.6V13.5H151.8z M151.8,39.4h-23v-23h23V39.4z"/>
	</g>
	<g>
		<g>
			<path d="M196.7,54.8c-14.5,0-26.3-11.8-26.3-26.3s11.8-26.3,26.3-26.3C211.2,2.2,223,14,223,28.5c0,0,0,0.1,0,0.1
				C222.9,43.1,211.2,54.8,196.7,54.8z"/>
			
				<linearGradient id="SVGID_00000163788053439335804560000000186484699552250282_" gradientUnits="userSpaceOnUse" x1="177.3902" y1="9.3016" x2="215.9982" y2="47.9096">
				<stop  offset="0" style="stop-color:#BEE0DE"/>
				<stop  offset="1" style="stop-color:#762A6A"/>
			</linearGradient>
			<path style="fill:url(#SVGID_00000163788053439335804560000000186484699552250282_);" d="M196.8,3.3c14,0,25.3,11.3,25.3,25.3
				s-11.3,25.3-25.3,25.3c-14,0-25.3-11.3-25.3-25.3C171.5,14.6,182.8,3.3,196.8,3.3 M196.8,1.3c-15.1-0.1-27.3,12.1-27.4,27.2
				c-0.1,15.1,12.1,27.3,27.2,27.4c15.1,0.1,27.3-12.1,27.4-27.2c0,0,0-0.1,0-0.1C224,13.6,211.8,1.4,196.8,1.3z"/>
		</g>
		<path class="st10" d="M212.7,36.6L196.7,9l-16,27.6l-1.6,2.8h35.2L212.7,36.6z M196.8,36.6h-12.7l12.7-21.9l12.7,21.9H196.8z"/>
	</g>
</g>
</svg>
